<mxfile host="Electron" agent="Mozilla/5.0 (Windows NT 10.0; Win64; x64) AppleWebKit/537.36 (KHTML, like Gecko) draw.io/26.0.16 Chrome/132.0.6834.196 Electron/34.2.0 Safari/537.36" version="26.0.16">
  <diagram name="Seite-1" id="E2k8nT_KQor3vGgn8xmM">
    <mxGraphModel dx="1596" dy="858" grid="1" gridSize="10" guides="1" tooltips="1" connect="1" arrows="1" fold="1" page="1" pageScale="1" pageWidth="827" pageHeight="1169" math="0" shadow="0">
      <root>
        <mxCell id="0" />
        <mxCell id="1" parent="0" />
        <mxCell id="Q7LhRY5FKY0td7MU3dRy-1" value="" style="rounded=1;whiteSpace=wrap;html=1;" vertex="1" parent="1">
          <mxGeometry y="150" width="840" height="800" as="geometry" />
        </mxCell>
        <mxCell id="Q7LhRY5FKY0td7MU3dRy-2" value="" style="rounded=0;whiteSpace=wrap;html=1;" vertex="1" parent="1">
          <mxGeometry x="60" y="200" width="550" height="700" as="geometry" />
        </mxCell>
        <mxCell id="Q7LhRY5FKY0td7MU3dRy-3" value="&lt;div&gt;&lt;br&gt;&lt;/div&gt;&lt;div&gt;Markieren&lt;/div&gt;" style="rounded=0;whiteSpace=wrap;html=1;" vertex="1" parent="1">
          <mxGeometry x="670" y="240" width="120" height="60" as="geometry" />
        </mxCell>
        <mxCell id="Q7LhRY5FKY0td7MU3dRy-4" value="Text" style="rounded=0;whiteSpace=wrap;html=1;" vertex="1" parent="1">
          <mxGeometry x="670" y="310" width="120" height="60" as="geometry" />
        </mxCell>
        <mxCell id="Q7LhRY5FKY0td7MU3dRy-6" value="Actor" style="shape=umlActor;verticalLabelPosition=bottom;verticalAlign=top;html=1;outlineConnect=0;" vertex="1" parent="1">
          <mxGeometry x="400" y="600" width="30" height="60" as="geometry" />
        </mxCell>
        <mxCell id="Q7LhRY5FKY0td7MU3dRy-11" value="" style="rounded=0;whiteSpace=wrap;html=1;" vertex="1" parent="1">
          <mxGeometry x="1039.47" y="328.97" width="370" height="390" as="geometry" />
        </mxCell>
        <mxCell id="Q7LhRY5FKY0td7MU3dRy-12" value="Actor" style="shape=umlActor;verticalLabelPosition=bottom;verticalAlign=top;html=1;outlineConnect=0;" vertex="1" parent="1">
          <mxGeometry x="1180" y="430" width="80" height="150" as="geometry" />
        </mxCell>
        <mxCell id="Q7LhRY5FKY0td7MU3dRy-13" value="" style="shape=stencil(nZzZ0tzGDYWf5r9l9b5cO857uMpypIpiuWQ5y9sHnb/IGR4MP8q50wIMyW6gcQAc9Fv+4fePP/324S2F3799/fL3D//69PO3j2/5L28pffr144evn77Zn97yj2/5h1++fP3wt69f/vj15/e///bTklx/+seXf65f+Pe7XqlbHksrhf+8/0veRvjfP/z1Xf7zp1+f5fPWo8jPAvJxq+EkX/YHvpTPc6tV5EcH+bGF8/vYBzWQb1sbIj8yyNcttZN829IE+bLFJPKTfj9t4/z7fSu0PnH/713eFgDeJ03dr7F1WE97/Dy//9wKvL99XjvLx7AF2ABb7zpUAd/IDEaeELeeQCFtPZ8V0jYrKMQtz7NC2QK9UtiKUyAviGbV/axQtwluFsdW5aPNjsAuYncKA/fBfm9EVcBvMMOXb5jomvaJ7ez6tm7kC6YQzr5vOzPoo8vWzt9gp1EA03js66HAx1HMuqxmvw1saZna2Z/XAUD7kLYiqzT4leJ+YB0KE4/s6MzbDpEUQSFso5wV0u7lVwrxvHHZwgR8w9RDw47NAW80dFHtGCfjHmqquW8Jdq27oGZ7gPJJvnfuh9RL+aYLWsIeJi7ks8jH3TVeylf15ZK2AOtfXVDOeODV3V4O+bIlQgm7nx/yFdfH/Pi8v6WhD1iQFfm+/8LrqKkuUwbam1mvgBBzMYr6Wz3/fmUPy2o/Ne07ciEfBbTkHcZcyZ/tv5p/gf1kXc/K/pXV32vfMqE09/tjD4jfKW8wBmKT+95mkQbXX+UTxg23/s38hd/nfOK2gijNy5vHEWp08seJcWVv8r19jwkX8uKPbexR6sofz+d5M9QI9mOnx3k9e0B7sCB9Pn96RH93kLFbAOPfP/tvzzt2uZCv8j5lxwkX8v28/r2iv9fdug75thX4fXf+944oxX5N3megPfT9tD/kOd65pGwEzJqGns8j7hZygR/q2T5H2jJBoLAfT4dCxjQxRrXQUbZCmCm5J9StEJw2Czv78GhbhTVaKcZ5E0bHQ9EAe5RV5dzPcghJa8bETGtlDOc4MMMeOa8SJwE2M7JC1FxumidTPprdEzInsOZr8oSyn/ZXGa+skikQ/jbvEfQ3K3rDI+V+Uhh0vEfNIWbbT6jLqkNVBcpHDZ83UehcB2lbK6pAOYQhbq9A6aVB6CyvdBw7V6WoWVSBULiBYt3pwbC37ijiWQFWyWBub6qAwHfoqWEKVC+qQUOPKVRSsATWKVAsqXWHNs8K9ISuJTVT6BQNp9YolwLsdIsa35YC7LTBueY2rsOp0arzh5sndIVUN6tkCKq6j64QsgwS+VUiUG6YaLqNi/DRBnKKOwSoPmOoZUZVoLBrsCLJyddwpw0nSH3GjspJyCQ74zsCwGuFotjKAsqEZR1Hgfg5ZIEDWRgv8g2GPugb+l4KfAq7BA8t7tfzyWeBvdGyTvXpBR0IwE31h/WSsNP2xsmhGTK+B7J4wksJ9sEWUZIGQ2RU1FlQRCAcYz7bV0kzFqok2Jr2qtgzboVlNVNL8oSIDjRd5WIhb1olAzse2tM+FK0drdyBFXxyQsh4uoDSGRnPo+XzlF4RqjSFJvlewVNjVsXepkAFADu2pMLQj5rJlYKcrXY8E9ZYB6N8Q8SagR29Ak4s6U70DV2rfhaTMCvrmgO1sfvglUI5n0urLkGr1LX7tQof/NFirY0rkS8Uyq2CrFL+s09IGKdfPCHertLZllq43Tip50221u4Kkh3bU7NpBb82zEWXeZ+t1XBmpZ1umgPVwsbXtMhSMyKBdWrIN0T+hqplN0PjVBZbR+V5WYvtA7loUaBbOGkyhSCV/4bpgAUUgQ6FG+wz67KWwt+QFOiWhG1CU5C6hmV2VM23wC5Jk+WOhCoX/nL9HQLrBk7G2VpXOkv7EBztoqOCASwpkVmGfYPIBP5kLiIshCevxE1tU5AYZwrYlesadrMFRYKhXcFJTohmVglNNi4i1jAFaTnngPWl4XvUE+P0cL2qRz3oKkPRhnDDxM8wpJALFgeGnuCA7iLx0DdE9w0J+wEGOqUhtlr/lItOdaDIpUdTiI6+UOGjDaVKUFzlTsp2uzKF4oHRLrNdUah3ChJ2I7cRVtdAKBiZawJlb1seCmkvs10pSPK6yDbgogZrpVAeAx6VBmsFwk1MFLur5Qwk8xioFfcZ2No2TCugtWPy3dypx8mJIVox1IYow/CplGbrXoV8LV8cdsNWSMv6Ppz6GNZU7gLXD6fWDwtCyToU6GXsaqzqoRIWaX0WbBTuCMJzQ43SW83Yuq1Jz5WD0XdVkJXfT9w6HHuS9pCnNK80rSYlzFQNzil0uZVX+6F2icnLqVgx5i/5KfIUwUtVYFT3mvqVvGZT6I+rpu8IoCRfNPRxhlqyrk9jqkzeU4in92HCrqT9bU8BXssnl3hhIDb5qvtFJa2SFARWBI3FtaoK1naKK5kVbIUtQrMjKJO9FfXHgrm1yfepv0/rWTUCHznelbzAlILNlOVfbv1Jvr0gWLO/TJVHqoarxVWM72t91J4jrU9Rbl/DskBxeP3Wf5u+D1ENi+M2NaTqLfvX9Rzsj03liWryf8gLvsp83iY9rxLi9JKUUxDv9kuqlOEuPjp5tP+uBP3A9jb1PA94Hhp+EEoy4+fqCvZMqq7NJUoYLwxfSXIYMdUzvCflzMjUo6h4levcLWkKkzDlaUUJIInxbVP+R8bvNTzfVZ7wquUXylXlFmjQphKfzw8m3Pfhn+7ie0NeRs+u9YH4vzsOxMDz3+SVb8Dv47jUlnBSgLc8XiqYMWJE7UM9MiYM2X04l8lMN/fjIAWDzAjq9LHiE0xBpzsaMpJH1DAQO/eUk7YAHjMrVwrDzY+QpY6sPeWbUDCK9pQfo0BXCoLN0k0F0xVgbsbNhivxLHdjMoDWF7mRPrr2DMyB8JWGAuocuPrn6Dc58sZNhYCZGRDT0TNz5mZP1DZGLkiDmo4nkiuatyn4kRPsNCZXer7pZTqgs4ZOuLMikS1PphsckekIPQFLnvPo1BwKkfehaHFlwUn6hur6TxknE6ZL1y0BiNQXr7qshRPq6cjQa5iEe/uCSMpg9kB3IZ0xqikIi6Pe7IMrShqsJE7qgwR4KPCEwnQjWPWmDzjdjEtDTr0p6BBNx9HcOZU8aViUTm9TECiz+uI4CBfUXG9a7680brr7U+tdd/wBr3DDUPAKnMJPl8K0xkfZVONoDB7mVBdqA1sla6+lqjYRxHlr6gHrxMtehUQUWWHosq7WBr3S0EpEZ2r6ovY6mhJu3NC5rF6xmbH4m6LAg1+Li+IUCDwsEpGMsnQED/507Tet9OYIaZPRhsuIDS3jE6pS0wdPoE9XozLwS816i6NylBn4pSqPKQi1ZPCE38ICwuiszBTJunGjYd96sVzlCR3R9+JxyBOY4bxAnNAnJ9Mno5vtCOwPwRHHefB2uINs8si6KcjGzYS2NIamHIuSw6QJnSngCvXaV3lCxUGK4UrIk2u8I7vJi8aJmSt6Ps6R70xfJ0/AmcsLZ3RNj1BnfDpbGswfcI24edO59tMjE1trK3x0VSDCskU0SQgmF1ssyMqpsSI3TV70F0+g8uSLQYqJTMIXoxo3ClEL0DcK1TECHgjqqmSa/DdwT1p6ik+48apKLCn1rUZ4tU7UmHNXjtxsXWma/E2+EGS1YoYqUFgsLgYtBSrWu2LoMnBSCC98Du/fGdo+MAUcvXY008nc2uwuK7BzAy8fiFrRvZkUWowbN7xEr5Qccp397hYhqWItxjApuBspJpelk2ubz4ZBKyU3Lngzhek4bIttC68UHZNljZ6SQt+ZOk9YAGeGXW/V0AalTbG4mTCuAPnrawab96KHCd1qIMSKQZOaB8vzNSZTUxoV73bo2k8YhRsiblY9Y/mnad17JCSAVTdUHW/uImjy/mEH1q/dX/shnZmT7u4Ly68IsTq+Xu9Y7Ypu3Kfh+kdtz/SKEMNN5veCdw1F7ebc3O0Q93b8U1pP++XleX/9+wREqu4ypsY3sgU9VNpA6OwLVpzRe3neLy9fbr5X/LFlJAy4CN4S1kqD4vjGdR4vH7AIE9xYydEB/k55HqXx8jwi697f0Cfbj/5+wVZjUPtfYzRoPzoUEzHSB20ArCEa/F7BvWVikTcov6N0rKRE9a9yc2+HFo8KDzJFvYCxFCTkJG16Gmom+0wK80vC+Zys9mOYmfKIrEWaPJH67/h0eeD6F+2N5I7nT3V8pRvCttpzZgJq07JXLjij4kBfzgiNu9ZOckJ5N+eQA8+bOH7NTVHN8YtvRv9eXIhI9avoHH4xhsnBop5YKzkgD47uCTchPqkPPE6BKwUxihvWWMxqFXFi1I6upBb5bpLouA6xY3UpVke0aVgLjU3LgpFHC6KjLqyvIqjobDXyfZ8puOmUiM6w0OvZuiPfTOavYpuIVpLrmA/MNhabVOAxno7+6i3e5cW2kk7c3uG5Kjbo1X939xtLOObxlOwaGwVP6+zb/Vxd6UpX52xv3Uet8oTm1iVDSm+k7G0Fa2EUIRot7rqqxHT1qlfb3crLfiW+kKg6+hHf/NeUyZb45r+mHsztkkX2ULooZbdrXEbpnDiO4MbM8x3dWMM936TYtCmW0R9LVbiYubrghtgzj1P82fvhb+XtD4/L6H/59Pnz+132z/+vl9fbP71ffJ9//C8=);lineShape=1;strokeColor=default;" vertex="1" parent="1">
          <mxGeometry x="1480.0042313645922" y="410.10138859583844" width="124.93442811000243" height="207.73045989889522" as="geometry" />
        </mxCell>
        <mxCell id="Q7LhRY5FKY0td7MU3dRy-14" value="" style="shape=stencil(nZzZ0tzGDYWf5r9l9b5cO857uMpypIpiuWQ5y9sHnb/IGR4MP8q50wIMyW6gcQAc9Fv+4fePP/324S2F3799/fL3D//69PO3j2/5L28pffr144evn77Zn97yj2/5h1++fP3wt69f/vj15/e///bTklx/+seXf65f+Pe7XqlbHksrhf+8/0veRvjfP/z1Xf7zp1+f5fPWo8jPAvJxq+EkX/YHvpTPc6tV5EcH+bGF8/vYBzWQb1sbIj8yyNcttZN829IE+bLFJPKTfj9t4/z7fSu0PnH/713eFgDeJ03dr7F1WE97/Dy//9wKvL99XjvLx7AF2ABb7zpUAd/IDEaeELeeQCFtPZ8V0jYrKMQtz7NC2QK9UtiKUyAviGbV/axQtwluFsdW5aPNjsAuYncKA/fBfm9EVcBvMMOXb5jomvaJ7ez6tm7kC6YQzr5vOzPoo8vWzt9gp1EA03js66HAx1HMuqxmvw1saZna2Z/XAUD7kLYiqzT4leJ+YB0KE4/s6MzbDpEUQSFso5wV0u7lVwrxvHHZwgR8w9RDw47NAW80dFHtGCfjHmqquW8Jdq27oGZ7gPJJvnfuh9RL+aYLWsIeJi7ks8jH3TVeylf15ZK2AOtfXVDOeODV3V4O+bIlQgm7nx/yFdfH/Pi8v6WhD1iQFfm+/8LrqKkuUwbam1mvgBBzMYr6Wz3/fmUPy2o/Ne07ciEfBbTkHcZcyZ/tv5p/gf1kXc/K/pXV32vfMqE09/tjD4jfKW8wBmKT+95mkQbXX+UTxg23/s38hd/nfOK2gijNy5vHEWp08seJcWVv8r19jwkX8uKPbexR6sofz+d5M9QI9mOnx3k9e0B7sCB9Pn96RH93kLFbAOPfP/tvzzt2uZCv8j5lxwkX8v28/r2iv9fdug75thX4fXf+944oxX5N3megPfT9tD/kOd65pGwEzJqGns8j7hZygR/q2T5H2jJBoLAfT4dCxjQxRrXQUbZCmCm5J9StEJw2Czv78GhbhTVaKcZ5E0bHQ9EAe5RV5dzPcghJa8bETGtlDOc4MMMeOa8SJwE2M7JC1FxumidTPprdEzInsOZr8oSyn/ZXGa+skikQ/jbvEfQ3K3rDI+V+Uhh0vEfNIWbbT6jLqkNVBcpHDZ83UehcB2lbK6pAOYQhbq9A6aVB6CyvdBw7V6WoWVSBULiBYt3pwbC37ijiWQFWyWBub6qAwHfoqWEKVC+qQUOPKVRSsATWKVAsqXWHNs8K9ISuJTVT6BQNp9YolwLsdIsa35YC7LTBueY2rsOp0arzh5sndIVUN6tkCKq6j64QsgwS+VUiUG6YaLqNi/DRBnKKOwSoPmOoZUZVoLBrsCLJyddwpw0nSH3GjspJyCQ74zsCwGuFotjKAsqEZR1Hgfg5ZIEDWRgv8g2GPugb+l4KfAq7BA8t7tfzyWeBvdGyTvXpBR0IwE31h/WSsNP2xsmhGTK+B7J4wksJ9sEWUZIGQ2RU1FlQRCAcYz7bV0kzFqok2Jr2qtgzboVlNVNL8oSIDjRd5WIhb1olAzse2tM+FK0drdyBFXxyQsh4uoDSGRnPo+XzlF4RqjSFJvlewVNjVsXepkAFADu2pMLQj5rJlYKcrXY8E9ZYB6N8Q8SagR29Ak4s6U70DV2rfhaTMCvrmgO1sfvglUI5n0urLkGr1LX7tQof/NFirY0rkS8Uyq2CrFL+s09IGKdfPCHertLZllq43Tip50221u4Kkh3bU7NpBb82zEWXeZ+t1XBmpZ1umgPVwsbXtMhSMyKBdWrIN0T+hqplN0PjVBZbR+V5WYvtA7loUaBbOGkyhSCV/4bpgAUUgQ6FG+wz67KWwt+QFOiWhG1CU5C6hmV2VM23wC5Jk+WOhCoX/nL9HQLrBk7G2VpXOkv7EBztoqOCASwpkVmGfYPIBP5kLiIshCevxE1tU5AYZwrYlesadrMFRYKhXcFJTohmVglNNi4i1jAFaTnngPWl4XvUE+P0cL2qRz3oKkPRhnDDxM8wpJALFgeGnuCA7iLx0DdE9w0J+wEGOqUhtlr/lItOdaDIpUdTiI6+UOGjDaVKUFzlTsp2uzKF4oHRLrNdUah3ChJ2I7cRVtdAKBiZawJlb1seCmkvs10pSPK6yDbgogZrpVAeAx6VBmsFwk1MFLur5Qwk8xioFfcZ2No2TCugtWPy3dypx8mJIVox1IYow/CplGbrXoV8LV8cdsNWSMv6Ppz6GNZU7gLXD6fWDwtCyToU6GXsaqzqoRIWaX0WbBTuCMJzQ43SW83Yuq1Jz5WD0XdVkJXfT9w6HHuS9pCnNK80rSYlzFQNzil0uZVX+6F2icnLqVgx5i/5KfIUwUtVYFT3mvqVvGZT6I+rpu8IoCRfNPRxhlqyrk9jqkzeU4in92HCrqT9bU8BXssnl3hhIDb5qvtFJa2SFARWBI3FtaoK1naKK5kVbIUtQrMjKJO9FfXHgrm1yfepv0/rWTUCHznelbzAlILNlOVfbv1Jvr0gWLO/TJVHqoarxVWM72t91J4jrU9Rbl/DskBxeP3Wf5u+D1ENi+M2NaTqLfvX9Rzsj03liWryf8gLvsp83iY9rxLi9JKUUxDv9kuqlOEuPjp5tP+uBP3A9jb1PA94Hhp+EEoy4+fqCvZMqq7NJUoYLwxfSXIYMdUzvCflzMjUo6h4levcLWkKkzDlaUUJIInxbVP+R8bvNTzfVZ7wquUXylXlFmjQphKfzw8m3Pfhn+7ie0NeRs+u9YH4vzsOxMDz3+SVb8Dv47jUlnBSgLc8XiqYMWJE7UM9MiYM2X04l8lMN/fjIAWDzAjq9LHiE0xBpzsaMpJH1DAQO/eUk7YAHjMrVwrDzY+QpY6sPeWbUDCK9pQfo0BXCoLN0k0F0xVgbsbNhivxLHdjMoDWF7mRPrr2DMyB8JWGAuocuPrn6Dc58sZNhYCZGRDT0TNz5mZP1DZGLkiDmo4nkiuatyn4kRPsNCZXer7pZTqgs4ZOuLMikS1PphsckekIPQFLnvPo1BwKkfehaHFlwUn6hur6TxknE6ZL1y0BiNQXr7qshRPq6cjQa5iEe/uCSMpg9kB3IZ0xqikIi6Pe7IMrShqsJE7qgwR4KPCEwnQjWPWmDzjdjEtDTr0p6BBNx9HcOZU8aViUTm9TECiz+uI4CBfUXG9a7680brr7U+tdd/wBr3DDUPAKnMJPl8K0xkfZVONoDB7mVBdqA1sla6+lqjYRxHlr6gHrxMtehUQUWWHosq7WBr3S0EpEZ2r6ovY6mhJu3NC5rF6xmbH4m6LAg1+Li+IUCDwsEpGMsnQED/507Tet9OYIaZPRhsuIDS3jE6pS0wdPoE9XozLwS816i6NylBn4pSqPKQi1ZPCE38ICwuiszBTJunGjYd96sVzlCR3R9+JxyBOY4bxAnNAnJ9Mno5vtCOwPwRHHefB2uINs8si6KcjGzYS2NIamHIuSw6QJnSngCvXaV3lCxUGK4UrIk2u8I7vJi8aJmSt6Ps6R70xfJ0/AmcsLZ3RNj1BnfDpbGswfcI24edO59tMjE1trK3x0VSDCskU0SQgmF1ssyMqpsSI3TV70F0+g8uSLQYqJTMIXoxo3ClEL0DcK1TECHgjqqmSa/DdwT1p6ik+48apKLCn1rUZ4tU7UmHNXjtxsXWma/E2+EGS1YoYqUFgsLgYtBSrWu2LoMnBSCC98Du/fGdo+MAUcvXY008nc2uwuK7BzAy8fiFrRvZkUWowbN7xEr5Qccp397hYhqWItxjApuBspJpelk2ubz4ZBKyU3Lngzhek4bIttC68UHZNljZ6SQt+ZOk9YAGeGXW/V0AalTbG4mTCuAPnrawab96KHCd1qIMSKQZOaB8vzNSZTUxoV73bo2k8YhRsiblY9Y/mnad17JCSAVTdUHW/uImjy/mEH1q/dX/shnZmT7u4Ly68IsTq+Xu9Y7Ypu3Kfh+kdtz/SKEMNN5veCdw1F7ebc3O0Q93b8U1pP++XleX/9+wREqu4ypsY3sgU9VNpA6OwLVpzRe3neLy9fbr5X/LFlJAy4CN4S1kqD4vjGdR4vH7AIE9xYydEB/k55HqXx8jwi697f0Cfbj/5+wVZjUPtfYzRoPzoUEzHSB20ArCEa/F7BvWVikTcov6N0rKRE9a9yc2+HFo8KDzJFvYCxFCTkJG16Gmom+0wK80vC+Zys9mOYmfKIrEWaPJH67/h0eeD6F+2N5I7nT3V8pRvCttpzZgJq07JXLjij4kBfzgiNu9ZOckJ5N+eQA8+bOH7NTVHN8YtvRv9eXIhI9avoHH4xhsnBop5YKzkgD47uCTchPqkPPE6BKwUxihvWWMxqFXFi1I6upBb5bpLouA6xY3UpVke0aVgLjU3LgpFHC6KjLqyvIqjobDXyfZ8puOmUiM6w0OvZuiPfTOavYpuIVpLrmA/MNhabVOAxno7+6i3e5cW2kk7c3uG5Kjbo1X939xtLOObxlOwaGwVP6+zb/Vxd6UpX52xv3Uet8oTm1iVDSm+k7G0Fa2EUIRot7rqqxHT1qlfb3crLfiW+kKg6+hHf/NeUyZb45r+mHsztkkX2ULooZbdrXEbpnDiO4MbM8x3dWMM936TYtCmW0R9LVbiYubrghtgzj1P82fvhb+XtD4/L6H/59Pnz+132z/+vl9fbP71ffJ9//C8=);lineShape=1;strokeColor=default;" vertex="1" parent="1">
          <mxGeometry x="1162.0042313645922" y="410.10138859583844" width="124.93442811000243" height="207.73045989889522" as="geometry" />
        </mxCell>
        <mxCell id="Q7LhRY5FKY0td7MU3dRy-16" value="" style="endArrow=classic;startArrow=classic;html=1;rounded=0;exitX=0.518;exitY=0.017;exitDx=0;exitDy=0;exitPerimeter=0;entryX=0.5;entryY=0;entryDx=0;entryDy=0;" edge="1" parent="1" source="Q7LhRY5FKY0td7MU3dRy-14" target="Q7LhRY5FKY0td7MU3dRy-11">
          <mxGeometry width="50" height="50" relative="1" as="geometry">
            <mxPoint x="1190" y="380" as="sourcePoint" />
            <mxPoint x="1240" y="330" as="targetPoint" />
          </mxGeometry>
        </mxCell>
        <mxCell id="Q7LhRY5FKY0td7MU3dRy-18" value="" style="endArrow=classic;startArrow=classic;html=1;rounded=0;entryX=0.021;entryY=0.592;entryDx=0;entryDy=0;entryPerimeter=0;" edge="1" parent="1" target="Q7LhRY5FKY0td7MU3dRy-14">
          <mxGeometry width="50" height="50" relative="1" as="geometry">
            <mxPoint x="1040" y="530" as="sourcePoint" />
            <mxPoint x="1090" y="480" as="targetPoint" />
          </mxGeometry>
        </mxCell>
      </root>
    </mxGraphModel>
  </diagram>
</mxfile>
